<svg width="127" height="108" viewBox="0 0 127 108" fill="none" xmlns="http://www.w3.org/2000/svg">
<path d="M7.85254 49.0242C7.85254 49.0242 8.06358 53.0079 8.14843 54.0921C8.22917 55.124 8.53457 55.7297 8.65502 55.9804C8.71871 56.1129 8.80426 56.2482 9.22202 56.7245C9.63979 57.2008 10.3914 58.012 11.1853 58.7604C11.9792 59.5088 12.7925 60.1699 13.2626 60.5411C13.8257 60.9857 14.3354 61.1916 15.1996 61.4782C15.6624 61.6316 16.2022 61.7141 17.8346 61.8052C19.4669 61.8963 22.1826 61.9712 23.7214 61.9959C25.5394 62.0252 25.9027 61.938 26.066 61.8589C26.272 61.759 26.5367 61.3632 26.9808 60.5591" stroke="#003594" stroke-width="4.5" stroke-linecap="round"/>
<path d="M27.4087 61.3679C27.4087 61.443 27.4277 61.8475 27.5438 62.7964C27.6155 63.3829 27.8151 64.1683 27.9921 64.8121C28.1691 65.4559 28.3436 65.9305 28.5901 66.4317C28.8366 66.9328 29.1498 67.4462 29.5297 67.9872C29.9096 68.5283 30.3467 69.0815 30.847 69.5427C31.3473 70.0038 31.8976 70.356 32.7549 70.7728C33.6122 71.1896 34.76 71.6601 35.4207 71.9219C36.0813 72.1836 36.2201 72.2223 36.6565 72.2841C37.0928 72.346 37.8225 72.4298 39.0628 72.4723C40.303 72.5148 42.0316 72.5135 43.0297 72.4964C44.0278 72.4793 44.2429 72.4465 45.113 72.0987C45.9831 71.751 47.5016 71.0892 48.6248 70.4966C49.748 69.9041 50.4299 69.4008 50.8863 69.044C51.8823 68.1515 52.1693 67.7667 52.4421 67.1519C52.6561 66.6385 53.0234 65.7161 53.4018 64.7658" stroke="#003594" stroke-width="4.5" stroke-linecap="round"/>
<path d="M47.2389 71.9972C47.1704 71.3242 52.8735 74.0777 53.4139 75.1195C53.5253 75.3343 54.0502 75.2826 55.2149 75.3964C56.3795 75.5103 58.348 75.6548 59.556 75.7148C61.1501 75.7939 61.8052 75.6657 62.2571 75.5642C62.5972 75.4879 63.466 75.3229 64.9434 75.0862C65.6894 74.9667 66.4051 74.7257 67.1394 74.4208C67.8738 74.1159 68.5994 73.7231 69.1154 73.4041C69.6314 73.0852 69.916 72.852 70.3641 72.3664C70.8121 71.8808 71.4149 71.1499 71.8716 70.4965C72.686 69.3313 72.9795 68.5457 73.1044 68.0247C73.3086 67.173 73.3211 66.2046 73.2964 65.4436C73.2855 65.1059 73.2224 64.8693 73.0262 64.269C72.83 63.6687 72.4885 62.7127 72.2831 62.0895C72.0778 61.4663 72.0191 61.2049 71.9327 60.8733" stroke="#003594" stroke-width="4.5" stroke-linecap="round"/>
<path d="M73.1069 64.9418C73.3178 65.2453 74.5565 66.6396 75.3997 67.4851C76.573 68.6617 77.6353 69.0956 78.3796 69.4068C78.8995 69.6242 79.9698 69.8393 82.1037 70.0461C83.4125 70.1729 85.1917 70.215 86.1603 70.2785C87.7227 70.3809 88.7705 70.3578 89.3828 70.2409C89.8447 70.1527 91.1929 69.9085 93.0866 69.3729C94.5184 68.9678 95.4959 68.1389 96.2609 67.3845C97.3331 66.3269 98.2562 64.8569 98.9517 63.8044" stroke="#003594" stroke-width="4.5" stroke-linecap="round"/>
<path d="M99.5149 64.1947C99.827 64.4034 100.73 65.0082 101.882 65.5466C102.862 66.005 103.673 66.0596 104.491 66.1637C106.357 66.401 107.718 66.6002 108.039 66.6267C108.452 66.6608 108.855 66.6535 109.818 66.6741C110.616 66.6911 112.041 66.6672 113.189 66.5719C114.337 66.4767 115.164 66.2969 116.018 66.0268C117.754 65.4776 118.937 64.8337 119.807 64.2041C121.168 63.2198 122.18 62.0693 122.785 61.2377C123.408 60.3824 123.76 59.4124 124.025 58.6797C124.177 58.2583 124.166 56.9406 124.085 54.9469C124.032 53.6499 123.311 52.5432 122.649 51.4424C121.87 50.4282 121.191 49.8554 120.552 49.3414C120.333 49.2058 120.041 49.067 119.613 48.9055" stroke="#003594" stroke-width="4.5" stroke-linecap="round"/>
<path d="M67.1604 74.6372C67.252 74.7881 67.9695 75.6414 69.5785 77.2922C70.4515 78.1879 72.11 79.5636 73.6909 80.7851C75.2718 82.0067 76.7723 82.9853 78.1703 83.7758C79.5683 84.5662 80.8184 85.1388 82.2804 85.6892C83.7424 86.2395 85.3784 86.7503 86.9074 87.1443C88.4364 87.5382 89.8087 87.7998 91.3192 87.9584C92.8297 88.117 94.4367 88.1646 95.7704 88.0634C98.1361 87.8838 99.3088 87.3942 99.6412 87.2793C100.025 87.1466 101.341 86.6026 103.608 85.3728C106.163 83.986 107.605 82.5095 108.218 82.0677C108.623 81.7761 109.248 80.6347 110.151 79.0104C111.144 77.2218 111.832 75.3705 112.124 74.485C112.297 73.8222 112.54 72.9868 112.956 70.4657C113.031 69.6801 113.054 68.8562 113.077 68.0073" stroke="#003594" stroke-width="4.5" stroke-linecap="round"/>
<path d="M49.7041 71.0784C59.5647 56.3756 47.83 73.0062 46.6228 72.9162C40.4598 72.4566 56.1421 77.4047 57.2395 78.1979C60.0103 80.2009 61.7409 81.6631 62.0433 81.9527C62.5503 82.438 63.5873 83.5326 64.8653 85.0946C65.46 85.8215 65.9052 86.4467 67.1068 88.6249C68.3083 90.8031 70.2423 94.5235 71.3928 96.9012C72.9651 100.151 73.3386 101.476 73.7006 102.088C74.519 103.471 76.0622 104.495 77.2254 104.933C79.0399 105.617 81.2194 105.567 82.5877 105.503C83.3492 105.467 83.7486 105.031 84.1134 104.684C84.406 104.406 84.936 103.21 85.6146 101.559C85.9284 100.795 86.1049 99.49 86.3818 97.3433C86.7605 94.409 86.6417 93.8504 86.676 93.0149C86.7005 92.4195 86.8279 91.5397 87.0387 89.7345C87.1056 88.9001 87.1765 88.3571 87.2222 88.0557C87.2506 87.884 87.2896 87.6741 87.3297 87.4579" stroke="#003594" stroke-width="4.5" stroke-linecap="round"/>
<path d="M7.41948 48.4941C7.37387 48.4493 7.22292 48.324 6.68799 47.8074C5.55337 46.7118 4.77701 45.7389 4.54013 45.3864C4.06862 44.6848 3.4072 43.6045 3.15029 42.9912C3.10852 42.8915 3.08454 42.7659 2.95955 42.0739C2.83455 41.3819 2.61956 40.1237 2.50216 39.3801C2.35497 38.4477 2.32558 38.1086 2.27491 37.5435C2.1738 36.416 2.39119 35.2267 2.73388 34.2729C3.11036 33.2251 3.56747 32.5373 3.79903 32.2108C3.99073 31.9404 4.40849 31.4676 5.00683 30.7409C5.58046 30.0443 6.11824 29.704 6.3985 29.549C6.66069 29.404 7.22546 29.4097 8.07733 29.4819C9.80836 29.6286 10.3507 30.3511 11.0814 31.2451C11.3298 31.5922 11.6321 32.0479 11.9427 32.4536C12.2533 32.8593 12.563 33.2013 13.0274 33.6338" stroke="#003594" stroke-width="4.5" stroke-linecap="round"/>
<path d="M8.60315 29.3025C8.62957 28.6125 8.84529 27.0936 8.96512 26.315C9.11183 25.3618 8.98337 24.6572 9.04267 24.1193C9.09375 23.6558 9.177 22.8047 9.33973 22.038C9.50247 21.2713 9.73951 20.6145 10.2634 19.5485C10.7874 18.4826 11.591 17.0274 12.1477 16.0898C12.9439 14.7488 13.4971 14.1711 13.9437 13.7388C14.1715 13.5184 14.4243 13.3194 14.933 13.0095C15.4417 12.6996 16.2044 12.2909 17.3277 11.8337C18.451 11.3765 19.9119 10.8832 20.8549 10.6168C22.6911 10.0978 22.8001 10.3836 23.25 10.6169" stroke="#003594" stroke-width="4.5" stroke-linecap="round"/>
<path d="M23.8201 10.8895C23.8125 10.8895 25.1405 9.61138 26.0861 8.89005C26.654 8.45682 27.3177 7.79877 28.0183 7.26603C28.719 6.73329 29.4153 6.32319 30.532 5.827C31.6487 5.3308 33.1647 4.76095 34.3187 4.3922C35.4727 4.02344 36.2189 3.87305 36.9011 3.75999C37.5833 3.64693 38.1788 3.57576 39.2803 3.54952C40.3818 3.52329 41.9712 3.54414 43.039 3.5932C44.1067 3.64226 44.6046 3.7189 45.3265 3.91588C46.0483 4.11287 47.0807 5.66296 48.131 4.95482C60.7922 -3.58125 88.0492 10.1597 79.75 17.5381" stroke="#003594" stroke-width="4.5" stroke-linecap="round"/>
<path d="M47.0704 32.4365C48.629 32.4365 49.9372 32.855 50.7882 33.4131C51.6584 33.984 51.8243 34.5158 51.8243 34.7812C51.8243 35.0467 51.6582 35.5777 50.7882 36.1484C49.9373 36.7067 48.6292 37.126 47.0704 37.126C45.5118 37.1259 44.2036 36.7067 43.3527 36.1484C42.483 35.5777 42.3176 35.0467 42.3175 34.7812C42.3175 34.5158 42.4825 33.984 43.3527 33.4131C44.2036 32.8548 45.5118 32.4366 47.0704 32.4365Z" fill="#003594" stroke="#003594" stroke-width="4.5"/>
<circle cx="76.75" cy="50.0378" r="5.25" fill="#003594" stroke="#003594" stroke-width="4.5"/>
<circle cx="80.25" cy="17.5378" r="7.75" fill="#003594" stroke="#003594" stroke-width="4.5"/>
<path d="M44.8594 35.1732H102.896C103.849 35.1732 104.771 34.8327 105.495 34.2132L122.87 19.3555" stroke="#003594" stroke-width="4.5" stroke-linecap="round"/>
<path d="M80.6865 19.1594L122.87 19.3555" stroke="#003594" stroke-width="4.5" stroke-linecap="round"/>
<path d="M122.87 19.3555L119.653 47.8273" stroke="#003594" stroke-width="4.5" stroke-linecap="round"/>
<path d="M120.458 49.4092H74.6163" stroke="#003594" stroke-width="4.5" stroke-linecap="round"/>
<path d="M46.75 29.7878C50.2018 29.7878 53 32.5861 53 36.0378C53 39.4896 50.2018 42.2878 46.75 42.2878C43.2982 42.2878 40.5 39.4896 40.5 36.0378C40.5 32.5861 43.2982 29.7878 46.75 29.7878Z" fill="#003594" stroke="#003594" stroke-width="4.5"/>
<circle cx="76.5327" cy="50.9771" r="2.25" fill="#003594" stroke="#003594" stroke-width="4"/>
</svg>
