<svg width="80" height="114" viewBox="0 0 80 114" fill="none" xmlns="http://www.w3.org/2000/svg">
<path d="M40 39.0974C60.9474 39.0974 77.7499 55.2897 77.75 75.0486C77.75 94.8075 60.9474 111 40 111C19.0526 111 2.25 94.8075 2.25 75.0486C2.25007 55.2897 19.0526 39.0974 40 39.0974Z" stroke="#003594" stroke-width="4.5"/>
<path d="M17.6403 14.5908H62.36C70.026 14.591 76.2408 20.8056 76.2408 28.4717C76.2408 38.9967 64.9842 45.6928 55.735 40.6699L50.4723 37.8115C43.9413 34.2648 36.0589 34.2649 29.528 37.8115L24.2643 40.6699C15.0151 45.6925 3.75942 38.9966 3.7594 28.4717C3.7594 20.8055 9.97409 14.5908 17.6403 14.5908Z" stroke="#003594" stroke-width="4.5"/>
<path d="M39.2452 38.2891V111.088" stroke="#003594" stroke-linecap="round"/>
<path d="M1.5094 77.2111L25.3629 81.0401C34.8139 82.5572 44.4464 82.5569 53.8972 81.0392L77.7358 77.2111" stroke="#003594" stroke-linecap="round"/>
<path d="M1.5094 68.9146L25.3629 65.0856C34.8139 63.5685 44.4464 63.5688 53.8972 65.0865L77.7358 68.9146" stroke="#003594" stroke-linecap="round"/>
<path d="M7.54712 94.5096C27.8314 105.322 52.1685 105.322 72.4528 94.5096" stroke="#003594" stroke-linecap="round"/>
<path d="M7.54712 54.1461C27.8314 43.3337 52.1685 43.3337 72.4528 54.1461" stroke="#003594" stroke-linecap="round"/>
<path d="M4 84.75L6.07362 85.7886C27.9078 96.7246 53.6148 96.7513 75.4717 85.8605" stroke="#003594" stroke-linecap="round"/>
<path d="M4.52832 61.3539C26.3989 50.4563 52.109 50.4214 74.0091 61.2596L75 61.75" stroke="#003594" stroke-linecap="round"/>
<path d="M51.3207 39.7305C54.3063 47.841 55.5568 56.4879 54.9912 65.112L54.3396 75.0487L53.0748 84.0874C51.9101 92.4119 49.7003 100.556 46.498 108.328L45.5 110.75" stroke="#003594" stroke-linecap="round"/>
<path d="M28.6793 39.7305C25.6937 47.841 24.4432 56.4879 25.0088 65.112L25.6604 75.0487L27.1404 85.6256C28.1632 92.9354 29.9921 100.109 32.5938 107.017L34 110.75" stroke="#003594" stroke-linecap="round"/>
<path d="M64.9057 48.3799C67.8832 54.952 69.2828 62.1293 68.9924 69.3386L68.8807 72.1131C68.7466 75.4415 68.326 78.7521 67.6235 82.0083L66.9339 85.2048C65.5856 91.4544 63.5752 97.5425 60.9367 103.366L60.3774 104.601" stroke="#003594" stroke-linecap="round"/>
<path d="M15.0943 48.3799C12.1168 54.952 10.7172 62.1293 11.0076 69.3386L11.1193 72.1131C11.2534 75.4415 11.674 78.7521 12.3765 82.0083L13.0661 85.2048C14.4144 91.4544 16.4248 97.5425 19.0633 103.366L19.6226 104.601" stroke="#003594" stroke-linecap="round"/>
<path d="M6 20.25L10.2285 15.5369C17.8151 7.08094 28.6396 2.25 40 2.25" stroke="#003594" stroke-width="4.5" stroke-linecap="round"/>
<path d="M72 18.25L69.6851 15.5238C62.535 7.10352 52.0465 2.25 41 2.25" stroke="#003594" stroke-width="4.5" stroke-linecap="round"/>
</svg>
