<svg width="92" height="115" viewBox="0 0 92 115" fill="none" xmlns="http://www.w3.org/2000/svg">
<path d="M36.5568 33.75L2.43163 109.428C1.83477 110.752 2.80287 112.25 4.25485 112.25H87.0713C88.5212 112.25 89.4893 110.755 88.8965 109.432L54.8622 33.4758" stroke="#003594" stroke-width="4.5"/>
<path d="M36.5568 35.25L21.6488 6.63616C20.6083 4.63894 22.0573 2.25 24.3094 2.25H32.5113H45.6591" stroke="#003594" stroke-width="4.5"/>
<path d="M54.7613 34.75L69.6253 6.65286C70.6823 4.65489 69.2338 2.25 66.9735 2.25H58.8068H45.6591" stroke="#003594" stroke-width="4.5"/>
<path d="M66.4264 87.25L76.254 96.4573" stroke="#003594" stroke-width="4.5" stroke-linecap="round"/>
<path d="M76.274 96.75L66.6661 104.374" stroke="#003594" stroke-width="4.5" stroke-linecap="round"/>
<path d="M25.2539 87.25L15.4263 96.4573" stroke="#003594" stroke-width="4.5" stroke-linecap="round"/>
<path d="M15.4063 96.75L25.0142 104.374" stroke="#003594" stroke-width="4.5" stroke-linecap="round"/>
<path d="M32.3319 94.5C33.9703 94.5 35.2557 95.8066 35.2557 97.3652C35.2557 98.9238 33.9702 100.23 32.3319 100.23C30.6937 100.23 29.4091 98.9237 29.4091 97.3652C29.4091 95.8067 30.6937 94.5001 32.3319 94.5Z" fill="#003594" stroke="#003594" stroke-width="4.5"/>
<path d="M45.7751 94.5C47.4135 94.5 48.699 95.8066 48.699 97.3652C48.699 98.9238 47.4135 100.23 45.7751 100.23C44.1369 100.23 42.8523 98.9237 42.8523 97.3652C42.8523 95.8067 44.1369 94.5001 45.7751 94.5Z" fill="#003594" stroke="#003594" stroke-width="4.5"/>
<path d="M59.3319 94.5C60.9703 94.5 62.2557 95.8066 62.2557 97.3652C62.2557 98.9238 60.9702 100.23 59.3319 100.23C57.6937 100.23 56.4091 98.9237 56.4091 97.3652C56.4091 95.8067 57.6937 94.5001 59.3319 94.5Z" fill="#003594" stroke="#003594" stroke-width="4.5"/>
</svg>
