<svg width="86" height="106" viewBox="0 0 86 106" fill="none" xmlns="http://www.w3.org/2000/svg">
<path d="M46.7531 102.81C34.2362 102.81 24.1171 96.4823 23.6449 91.9604C23.949 66.9514 19.8561 81.7628 46.7531 83.3217" stroke="#003594" stroke-width="4.5"/>
<path d="M45.5836 102.811C58.1004 102.811 68.2195 96.4833 68.6917 91.9614C68.3876 66.9524 72.4806 81.7638 45.5835 83.3227" stroke="#003594" stroke-width="4.5"/>
<path d="M45.5837 22.5186C53.1644 22.5186 59.2931 17.4409 59.579 13.8122C59.3948 -6.25619 61.8738 5.67685 45.5837 6.92778" stroke="#003594" stroke-width="4.5" stroke-linecap="round"/>
<path d="M45.5835 22.5179C38.0027 22.5179 31.8741 17.4402 31.5881 13.8115C31.7723 -6.25689 29.2934 5.62851 45.5835 6.87945" stroke="#003594" stroke-width="4.5" stroke-linecap="round"/>
<path d="M68.3876 77.8647L63.4973 72.9749C62.1172 71.5951 61.2231 69.8041 60.9497 67.8718L55.5238 29.5336L54.3544 20.9587" stroke="#003594" stroke-width="4.5"/>
<path d="M23.9489 77.8647L28.8475 72.9667C30.2225 71.5919 31.1152 69.8088 31.3922 67.8843L33.0769 56.177M37.9822 20.9587L36.8127 29.5336L35.282 41.2924" stroke="#003594" stroke-width="4.5"/>
<path d="M45.5836 95.7944C53.4091 95.7944 61.1167 93.6241 67.8029 89.5581" stroke="#003594" stroke-width="4.5"/>
<path d="M45.5836 95.7944C38.1832 95.7944 30.9384 93.6692 24.7105 89.6716L24.5337 89.5581" stroke="#003594" stroke-width="4.5"/>
<path d="M64.7681 33.3118C65.4369 33.6099 66.2192 33.6494 66.9421 33.4237C67.4582 33.9487 68.1689 34.2659 68.9158 34.3016C69.2135 34.9877 69.7625 35.5422 70.442 35.8358C70.4841 36.5971 70.8028 37.319 71.3312 37.8357C71.1153 38.5794 71.1718 39.3812 71.4873 40.0587C71.0399 40.6969 70.8276 41.4854 70.8919 42.2438C70.2652 42.7002 69.803 43.3813 69.6058 44.129C68.877 44.3488 68.2227 44.8367 67.7886 45.48C67.0471 45.4371 66.2836 45.6696 65.6679 46.1279C64.9987 45.8295 64.2151 45.7901 63.4919 46.0162C62.9756 45.4915 62.2651 45.1736 61.5182 45.1383C61.2203 44.4525 60.6724 43.8973 59.993 43.6039C59.9507 42.8425 59.6316 42.1207 59.1029 41.6042C59.3187 40.8601 59.2627 40.0588 58.9468 39.3811C59.3944 38.7426 59.6077 37.9547 59.5431 37.1959C60.1699 36.7394 60.6311 36.0586 60.8282 35.3109C61.5574 35.0912 62.2111 34.6035 62.6454 33.9599C63.3878 34.0032 64.1519 33.7707 64.7681 33.3118Z" stroke="#003594" stroke-width="4.5"/>
<path d="M65.5182 36.6663C67.3178 36.6663 68.817 38.1471 68.817 40.0227C68.8169 41.8982 67.3177 43.3782 65.5182 43.3782C63.7189 43.378 62.2205 41.8981 62.2203 40.0227C62.2203 38.1472 63.7188 36.6665 65.5182 36.6663Z" stroke="#003594" stroke-width="4.5"/>
<path d="M32.7203 36.0701C33.7974 36.9743 35.4388 37.0611 36.6925 36.2849C37.3737 37.5359 38.8649 38.1932 40.2896 37.883C40.4869 39.3291 41.6463 40.487 43.0754 40.679C42.7642 42.1393 43.4461 43.6584 44.7093 44.3332C43.9303 45.6289 44.0504 47.3256 44.9963 48.4061C43.8484 49.3814 43.3896 51.0429 43.8984 52.4011C42.5214 52.9431 41.5435 54.3676 41.5502 55.8369C40.1073 55.8846 38.7335 56.9008 38.2381 58.2981C36.8984 57.8458 35.2973 58.3374 34.3648 59.492C33.2875 58.5885 31.646 58.5008 30.3927 59.2772C29.711 58.0266 28.2202 57.3674 26.7955 57.6781C26.5975 56.2327 25.4394 55.0747 24.0107 54.883C24.3218 53.4221 23.6391 51.9032 22.3749 51.229C23.1545 49.933 23.0363 48.2366 22.0898 47.1559C23.2378 46.1804 23.6969 44.5192 23.1877 43.1609C24.5653 42.6187 25.5423 41.1942 25.5349 39.7243C26.9784 39.6772 28.3515 38.6619 28.8471 37.264C30.1869 37.7171 31.7875 37.2249 32.7203 36.0701Z" stroke="#003594" stroke-width="4.5"/>
<path d="M34.2505 39.6836C39.1141 39.6837 43.097 43.6739 43.0972 48.6455C43.0972 53.6172 39.1142 57.6083 34.2505 57.6084C29.3868 57.6084 25.4039 53.6173 25.4039 48.6455C25.4041 43.6739 29.3869 39.6836 34.2505 39.6836Z" stroke="#003594" stroke-width="4.5"/>
<path d="M54.9391 3.80933V13.9433" stroke="#003594" stroke-width="2" stroke-linecap="round"/>
<path d="M45.8174 6.92773V17.0617" stroke="#003594" stroke-width="2" stroke-linecap="round"/>
<path d="M36.2281 3.80933V13.9433" stroke="#003594" stroke-width="2" stroke-linecap="round"/>
</svg>
