<svg width="141" height="110" viewBox="0 0 141 110" fill="none" xmlns="http://www.w3.org/2000/svg">
<path d="M44.0435 9.52545C51.0623 6.59831 58.6134 11.6762 58.4661 19.2241L57.0729 90.5709C56.9913 90.4229 56.901 90.2793 56.8019 90.1421L55.9523 88.966C53.411 85.45 49.0062 83.8165 44.7076 84.7875C38.6686 85.8385 33.3044 89.4326 29.9876 94.654L27.6006 98.412C27.4186 98.6983 27.1827 98.9478 26.9066 99.145C25.4696 100.171 23.488 99.4994 23.023 97.829L3.19181 26.5626L44.0435 9.52545Z" stroke="#003594" stroke-width="4.5" stroke-linecap="round"/>
<path d="M73.5238 9.54146C66.5053 6.6167 58.9532 11.6974 59.0993 19.2452L60.4799 90.5906C60.5616 90.4425 60.6517 90.2991 60.751 90.1617L61.6018 88.9854C64.1443 85.4675 68.5508 83.8319 72.8503 84.8031C78.8879 85.8526 84.2498 89.4448 87.5652 94.6639L89.9516 98.42C90.1336 98.7065 90.3694 98.9557 90.6455 99.1528C92.0825 100.179 94.0643 99.5062 94.5294 97.8355L114.373 26.5637L73.5238 9.54146Z" stroke="#003594" stroke-width="4.5" stroke-linecap="round"/>
<path d="M57.2832 92.1052C57.3034 92.1293 57.4319 92.2165 57.6319 92.2852C58.0341 92.4233 58.3592 92.3341 58.6356 92.3561C58.8826 92.3757 59.3475 92.3653 59.627 92.3481C60.1078 92.2493 60.2121 92.2143 60.2794 92.1585C60.3204 92.1194 60.375 92.0583 60.4455 91.9836" stroke="#003594" stroke-width="4.5" stroke-linecap="round"/>
<path d="M122.839 71.6958C131.689 71.6958 138.25 80.0418 138.25 89.5132C138.25 98.9846 131.689 107.331 122.839 107.331C113.988 107.33 107.427 98.9846 107.427 89.5132C107.428 80.0419 113.988 71.6959 122.839 71.6958Z" stroke="#003594" stroke-width="4.5"/>
<path d="M122.839 76.8647V85.2827" stroke="#003594" stroke-width="4.5" stroke-linecap="round"/>
<path d="M107.612 52.0415L110.692 51.6165C118.156 50.5866 124.344 60.9345 122.628 71.5747" stroke="#003594" stroke-width="4.5" stroke-linecap="round"/>
<path d="M25.5914 100.216L44.2781 96.7025C54.1548 94.8454 64.2929 94.8658 74.162 96.7627L92.129 100.216" stroke="#003594" stroke-width="4.5" stroke-linecap="round"/>
<path d="M52.6319 86.5H66.6319L65.7569 91.3462L66.6319 95.5H52.6319L53.5069 91.3462L52.6319 86.5Z" fill="#003594"/>
</svg>
