<svg width="91" height="114" viewBox="0 0 91 114" fill="none" xmlns="http://www.w3.org/2000/svg">
<path d="M45.2844 2.9999C46.0521 1.80842 43.0475 3.26209 38.9856 5.39908C31.7633 9.1987 25.5966 14.8269 21.2348 21.7241C18.3514 26.2834 16.3403 31.3387 15.3038 36.6326L15.1378 37.4805C14.5639 40.4116 13.7186 43.283 12.6127 46.0575L11.169 49.6798C9.34773 54.2492 7.1283 58.6495 4.53631 62.8301L2.79879 65.8193C1.90262 67.3611 2.12019 69.3076 3.33465 70.6135C4.10098 71.4375 5.17554 71.9056 6.30081 71.9056H6.78018C7.83348 71.9056 8.83932 72.3437 9.55663 73.115C10.092 73.6907 10.4352 74.4185 10.5387 75.1978L11.0288 78.8867V83.7735V86.2257C11.0288 87.3695 11.2787 88.4996 11.761 89.5367C12.5458 91.2244 13.9045 92.5785 15.5949 93.3574L16.6685 93.8522C17.2361 94.1137 17.8247 94.3267 18.4282 94.489L22.7154 95.6414C24.6456 96.0565 26.0804 97.6804 26.2546 99.6471L27.0311 108.413C27.1608 109.877 28.3873 111 29.8572 111H66.2154C69.1115 111 71.4857 108.703 71.5819 105.809L71.9576 94.4974C72.0245 92.4835 72.4474 90.4974 73.2068 88.631L76.6035 80.2829C79.5961 72.9742 83.4442 70.215 83.3469 60.9999" stroke="#003594" stroke-width="4.5" stroke-linecap="round"/>
<path d="M23.3647 38.1583H33.7195C33.9509 38.1583 34.1752 38.0781 34.3541 37.9312L39.8089 33.4522C40.2311 33.1055 40.8534 33.1618 41.2065 33.5786L46.1624 39.4282C46.6045 39.9501 47.4284 39.884 47.7817 39.2983L54.9095 27.4804C55.223 26.9605 55.9237 26.8377 56.3954 27.2199L60.7807 30.7733C61.2515 31.1548 61.9507 31.0332 62.2651 30.5152L74.0065 11.1699" stroke="#003594" stroke-width="4.5" stroke-linecap="round"/>
<path d="M76.18 10.8699L74.8204 9.89688L76.7323 8.39303L76.18 10.8699Z" fill="#003594" stroke="#003594" stroke-width="4.5"/>
<path d="M19.469 37.1558C20.5559 37.1558 21.8887 37.8737 23.0657 39.772C24.2215 41.6362 25.01 44.3531 25.01 47.4722C25.0099 50.591 24.2214 53.3072 23.0657 55.1714C21.8887 57.0697 20.5559 57.7876 19.469 57.7876C18.3821 57.7876 17.0493 57.0697 15.8723 55.1714C14.7166 53.3072 13.928 50.591 13.928 47.4722C13.928 44.3531 14.7165 41.6362 15.8723 39.772C17.0493 37.8737 18.3821 37.1558 19.469 37.1558Z" stroke="#003594" stroke-width="4.5"/>
<path d="M45.439 2.79248V60.0378" stroke="#003594" stroke-width="4.5" stroke-linecap="round"/>
<path d="M88.29 53.0564H45.4393" stroke="#003594" stroke-width="4.5" stroke-linecap="round"/>
<path d="M88.29 39.0945H45.4393" stroke="#003594" stroke-width="4.5" stroke-linecap="round"/>
<path d="M88.29 25.1321L45.4393 25.1321" stroke="#003594" stroke-width="4.5" stroke-linecap="round"/>
<path d="M88.29 11.1699L45.4393 11.1699" stroke="#003594" stroke-width="4.5" stroke-linecap="round"/>
<path d="M58.4243 2.79248V60.0378" stroke="#003594" stroke-width="4.5" stroke-linecap="round"/>
<path d="M71.4094 2.79248V60.8925" stroke="#003594" stroke-width="4.5" stroke-linecap="round"/>
<path d="M83.3468 3V61.1" stroke="#003594" stroke-width="4.5" stroke-linecap="round"/>
</svg>
