<svg width="87" height="114" viewBox="0 0 87 114" fill="none" xmlns="http://www.w3.org/2000/svg">
<path d="M39.4215 6.5L35.4022 8.91768C28.982 12.7795 23.6144 18.1663 19.7755 24.6002C17.0061 29.2418 15.0855 34.3395 14.1037 39.6545L14.0081 40.172C13.4884 42.9852 12.7206 45.7467 11.7137 48.4244L10.3835 51.9618C8.7405 56.3309 6.72976 60.5527 4.3729 64.5818L2.72812 67.5811C1.94366 69.0115 2.13771 70.7799 3.21371 72.0062C3.95048 72.8459 5.01337 73.3273 6.13046 73.3273H6.31403C7.33131 73.3273 8.29924 73.7657 8.97018 74.5304C9.43627 75.0616 9.73238 75.7203 9.82027 76.4215L10.2757 80.0546V84.7637V87.1965C10.2757 88.254 10.495 89.3 10.9199 90.2685C11.6473 91.9264 12.9394 93.2725 14.5662 94.0671L15.3743 94.4618C15.9093 94.7231 16.4665 94.9366 17.0392 95.0998L20.9007 96.2C22.6582 96.6006 23.954 98.093 24.1041 99.8893L24.836 108.647C24.9471 109.977 26.0591 111 27.3937 111H60.4493C63.0809 111 65.237 108.91 65.3194 106.28L65.6741 94.9633C65.7321 93.11 66.1011 91.2797 66.7656 89.5487L69.8937 81.4L75.7965 61.8909" stroke="#003594" stroke-width="4.5" stroke-linecap="round"/>
<path d="M46.0187 2.25H78.421C81.5967 2.25 84.171 4.82436 84.171 8V55.2363C84.171 58.412 81.5967 60.9863 78.421 60.9863H46.0187C42.843 60.9863 40.2687 58.412 40.2687 55.2363V8C40.2687 4.82436 42.843 2.25 46.0187 2.25Z" stroke="#003594" stroke-width="4.5"/>
<path d="M56.9076 36.3274H73.4354" stroke="#003594" stroke-width="4.5" stroke-linecap="round"/>
<path d="M47.4631 26.9092H73.4354" stroke="#003594" stroke-width="4.5" stroke-linecap="round"/>
<path d="M52.1854 18.8364H75.7965" stroke="#003594" stroke-width="4.5" stroke-linecap="round"/>
<path d="M54.5465 45.7456H68.7132" stroke="#003594" stroke-width="4.5" stroke-linecap="round"/>
</svg>
