<svg width="200" height="200" viewBox="0 0 200 200" fill="none" xmlns="http://www.w3.org/2000/svg">
<circle cx="100.5" cy="111.5" r="25" stroke="white" stroke-width="3"/>
<path d="M86.0332 69.5H114.967C120.232 69.5002 124.5 73.7682 124.5 79.0332C124.5 86.3443 116.609 90.9351 110.254 87.3213L107.58 85.7998C103.19 83.3036 97.8098 83.3046 93.4199 85.8008L90.7461 87.3213C84.3906 90.9351 76.5 86.3443 76.5 79.0332C76.5002 73.7682 80.7682 69.5002 86.0332 69.5Z" stroke="white" stroke-width="3"/>
<path d="M100 86V136.5" stroke="white" stroke-linecap="round"/>
<path d="M75 113L85.3341 114.737C95.212 116.397 105.298 116.397 115.176 114.736L125.5 113" stroke="white" stroke-linecap="round"/>
<path d="M75 107.245L85.3341 105.508C95.212 103.848 105.298 103.848 115.176 105.509L125.5 107.245" stroke="white" stroke-linecap="round"/>
<path d="M79 125C92.3631 132.458 108.637 132.458 122 125" stroke="white" stroke-linecap="round"/>
<path d="M79 97C92.3631 89.5415 108.637 89.5415 122 97" stroke="white" stroke-linecap="round"/>
<path d="M78 119C92.4115 126.519 109.588 126.519 124 119" stroke="white" stroke-linecap="round"/>
<path d="M77 102C91.4115 94.4809 108.588 94.4809 123 102" stroke="white" stroke-linecap="round"/>
<path d="M108 87C109.98 92.6314 110.808 98.6033 110.435 104.561L110 111.5L109.198 117.501C108.401 123.462 106.995 129.326 105 135" stroke="white" stroke-linecap="round"/>
<path d="M93 87C91.0202 92.6314 90.1923 98.6033 90.5654 104.561L91 111.5L91.8019 117.501C92.5985 123.462 94.0053 129.326 96 135" stroke="white" stroke-linecap="round"/>
<path d="M117 93C118.975 97.5641 119.901 102.513 119.71 107.482L119.633 109.468C119.545 111.774 119.266 114.069 118.8 116.33L118.387 118.334C117.465 122.81 116.085 127.181 114.27 131.376L114 132" stroke="white" stroke-linecap="round"/>
<path d="M84 93C82.0252 97.5641 81.0992 102.513 81.2903 107.482L81.3667 109.468C81.4554 111.774 81.7341 114.069 82.1998 116.33L82.6127 118.334C83.5351 122.81 84.9148 127.181 86.73 131.376L87 132" stroke="white" stroke-linecap="round"/>
<path d="M78 74L80.96 70.3353C85.7285 64.4314 92.9108 61 100.5 61" stroke="white" stroke-width="3" stroke-linecap="round"/>
<path d="M122 72.5L120.396 70.4501C115.728 64.4852 108.574 61 101 61" stroke="white" stroke-width="3" stroke-linecap="round"/>
</svg>
