<svg width="200" height="200" viewBox="0 0 200 200" fill="none" xmlns="http://www.w3.org/2000/svg">
<path d="M66.1941 97.2654C66.0423 97.5636 65.8504 98.083 65.7389 98.3986C65.5935 98.8102 65.6144 99.2751 65.6671 99.9606C65.7173 100.613 65.9072 100.996 65.9821 101.154C66.0217 101.238 66.0749 101.324 66.3346 101.625C66.5943 101.926 67.0616 102.439 67.5552 102.912C68.0487 103.385 68.5544 103.803 68.8467 104.038C69.1968 104.319 69.5136 104.449 70.0509 104.63C70.3386 104.727 70.6742 104.779 71.6891 104.837C72.7039 104.894 74.3923 104.942 75.349 104.957C76.4793 104.976 76.7051 104.921 76.8066 104.871C76.9347 104.808 77.0993 104.557 77.3754 104.049" stroke="white" stroke-width="3" stroke-linecap="round"/>
<path d="M77.6415 104.56C77.6415 104.608 77.6533 104.864 77.7255 105.463C77.77 105.834 77.8941 106.331 78.0042 106.738C78.1143 107.145 78.2227 107.445 78.376 107.762C78.5292 108.078 78.7239 108.403 78.9601 108.745C79.1963 109.087 79.4681 109.437 79.7791 109.728C80.0902 110.02 80.4322 110.243 80.9653 110.506C81.4983 110.77 82.2118 111.067 82.6226 111.233C83.0333 111.398 83.1196 111.422 83.3909 111.462C83.6622 111.501 84.1159 111.554 84.8869 111.581C85.658 111.607 86.7327 111.607 87.3532 111.596C87.9737 111.585 88.1074 111.564 88.6484 111.344C89.1893 111.124 90.1334 110.706 90.8317 110.332C91.53 109.957 91.9539 109.639 92.2377 109.413C92.8569 108.849 93.0354 108.606 93.205 108.217C93.338 107.892 93.5664 107.309 93.8016 106.708" stroke="white" stroke-width="3" stroke-linecap="round"/>
<path d="M89.9114 111.501C90.0267 111.506 90.3419 111.581 90.6107 111.787C90.9215 112.026 91.1173 112.292 91.2381 112.384C91.3631 112.481 91.712 112.625 92.3089 112.829C92.9775 113.057 93.4971 113.15 93.8089 113.254C93.9848 113.313 94.2045 113.357 94.9286 113.429C95.6527 113.501 96.8766 113.592 97.6276 113.63C98.6187 113.68 99.0259 113.599 99.3069 113.535C99.5183 113.487 100.058 113.383 100.977 113.233C101.441 113.157 101.886 113.005 102.342 112.812C102.799 112.62 103.25 112.371 103.571 112.17C103.892 111.968 104.068 111.821 104.347 111.514C104.626 111.207 105 110.744 105.284 110.331C105.791 109.595 105.973 109.098 106.051 108.769C106.178 108.23 106.185 107.618 106.17 107.137C106.163 106.923 106.124 106.774 106.002 106.394C105.88 106.015 105.668 105.41 105.54 105.016C105.412 104.622 105.376 104.457 105.322 104.248" stroke="white" stroke-width="3" stroke-linecap="round"/>
<path d="M106.052 106.82C106.183 107.012 106.953 107.893 107.478 108.428C108.207 109.172 108.868 109.446 109.33 109.643C109.654 109.78 110.319 109.916 111.646 110.047C112.459 110.127 113.565 110.154 114.168 110.194C115.139 110.259 115.79 110.244 116.171 110.17C116.458 110.114 117.296 109.96 118.474 109.621C119.364 109.365 119.972 108.841 120.447 108.364C121.114 107.696 121.688 106.766 122.12 106.101" stroke="white" stroke-width="3" stroke-linecap="round"/>
<path d="M122.47 106.348C122.664 106.479 123.226 106.862 123.942 107.202C124.552 107.492 125.055 107.527 125.564 107.592C126.724 107.742 127.571 107.868 127.77 107.885C128.027 107.907 128.277 107.902 128.876 107.915C129.372 107.926 130.258 107.911 130.972 107.85C131.686 107.79 132.2 107.677 132.731 107.506C133.81 107.159 134.545 106.751 135.086 106.353C135.932 105.731 136.562 105.004 136.938 104.478C137.325 103.937 137.544 103.324 137.708 102.861C137.803 102.594 137.796 101.761 137.746 100.501C137.713 99.6811 137.265 98.9814 136.853 98.2854C136.369 97.6443 135.946 97.2822 135.55 96.9572C135.413 96.8715 135.232 96.7837 134.965 96.6816" stroke="white" stroke-width="3" stroke-linecap="round"/>
<path d="M102.355 112.949C102.412 113.045 102.858 113.584 103.859 114.628C104.401 115.194 105.433 116.064 106.415 116.836C107.398 117.608 108.331 118.227 109.2 118.727C110.069 119.226 110.847 119.588 111.756 119.936C112.664 120.284 113.682 120.607 114.632 120.856C115.583 121.105 116.436 121.271 117.375 121.371C118.314 121.471 119.313 121.501 120.142 121.437C121.613 121.324 122.342 121.014 122.549 120.942C122.788 120.858 123.606 120.514 125.015 119.736C126.604 118.86 127.5 117.926 127.881 117.647C128.133 117.462 128.522 116.741 129.083 115.714C129.701 114.583 130.128 113.413 130.31 112.853C130.417 112.434 130.568 111.906 130.827 110.312C130.874 109.815 130.888 109.294 130.902 108.758" stroke="white" stroke-width="3" stroke-linecap="round"/>
<path d="M91.9702 112.798C92.6098 113.125 94.3286 114.069 94.9536 114.389C95.1668 114.498 95.5052 114.699 96.1874 115.2C97.91 116.467 98.9859 117.391 99.174 117.574C99.4891 117.881 100.134 118.573 100.928 119.56C101.298 120.02 101.575 120.415 102.322 121.792C103.069 123.169 104.271 125.521 104.987 127.025C105.964 129.079 106.196 129.917 106.421 130.304C106.93 131.178 107.89 131.825 108.613 132.102C109.741 132.535 111.096 132.503 111.947 132.463C112.42 132.44 112.668 132.165 112.895 131.945C113.077 131.769 113.407 131.013 113.828 129.969C114.024 129.486 114.133 128.661 114.305 127.304C114.541 125.449 114.467 125.096 114.488 124.568C114.504 124.191 114.583 123.635 114.714 122.494C114.755 121.966 114.799 121.623 114.828 121.432C114.846 121.324 114.87 121.191 114.895 121.054" stroke="white" stroke-width="3" stroke-linecap="round"/>
<path d="M65.2139 96.4215C65.1856 96.3932 65.0917 96.3139 64.7591 95.9874C64.0537 95.2947 63.5711 94.6796 63.4238 94.4568C63.1307 94.0132 62.7194 93.3303 62.5597 92.9426C62.5337 92.8795 62.5188 92.8001 62.4411 92.3626C62.3634 91.9251 62.2298 91.1297 62.1568 90.6596C62.0653 90.0701 62.047 89.8557 62.0155 89.4985C61.9526 88.7857 62.0878 88.0338 62.3008 87.4308C62.5349 86.7684 62.8191 86.3336 62.963 86.1271C63.0822 85.9562 63.3419 85.6573 63.7139 85.1979C64.0706 84.7574 64.4049 84.5423 64.5792 84.4443C64.7422 84.3527 65.0933 84.3563 65.6229 84.4019C66.6991 84.4947 67.0363 84.9514 67.4906 85.5166C67.645 85.7361 67.8329 86.0241 68.026 86.2806C68.2191 86.5371 68.4117 86.7533 68.7004 87.0268" stroke="white" stroke-width="3" stroke-linecap="round"/>
<path d="M65.9498 84.2885C65.9663 83.8523 66.1004 82.892 66.1749 82.3998C66.2661 81.7972 66.1862 81.3518 66.2231 81.0116C66.2548 80.7187 66.3066 80.1806 66.4078 79.6959C66.5089 79.2112 66.6563 78.7959 66.982 78.122C67.3078 77.4481 67.8074 76.5282 68.1535 75.9354C68.6485 75.0876 68.9924 74.7224 69.2701 74.4491C69.4117 74.3097 69.5689 74.1839 69.8852 73.988C70.2014 73.7921 70.6756 73.5337 71.3739 73.2447C72.0723 72.9557 72.9805 72.6438 73.5668 72.4753C74.7084 72.1473 75.1576 72.3642 75.4373 72.5117" stroke="white" stroke-width="3" stroke-linecap="round"/>
<path d="M75.9908 72.0078C75.986 72.0078 76.2312 71.8395 76.8191 71.3835C77.1722 71.1096 77.5848 70.6936 78.0204 70.3568C78.456 70.02 78.8889 69.7607 79.5832 69.447C80.2774 69.1333 81.2199 68.7731 81.9374 68.54C82.6549 68.3068 83.1188 68.2117 83.5429 68.1403C83.967 68.0688 84.3373 68.0238 85.0221 68.0072C85.7069 67.9906 86.695 68.0038 87.3589 68.0348C88.0227 68.0658 88.3323 68.1143 88.781 68.2388C89.2298 68.3634 89.8084 68.5625 90.5246 68.8956C91.2408 69.2288 92.0771 69.6899 92.5695 69.9796C93.1851 70.3738 93.4262 70.5971 93.6634 70.8129C93.7866 70.913 95.8439 72.9197 95.9907 73" stroke="white" stroke-width="3" stroke-linecap="round"/>
<circle cx="90.9907" cy="88" r="4.5" fill="black" stroke="white" stroke-width="3"/>
<circle cx="105.991" cy="97" r="1.5" fill="#201A4D" stroke="white" stroke-width="3"/>
<circle cx="98.9907" cy="77" r="4.5" stroke="white" stroke-width="3"/>
<path d="M88.4907 88H123.995C124.959 88 125.892 87.6514 126.62 87.0184L136.991 78" stroke="white" stroke-width="3" stroke-linecap="round"/>
<path d="M103.991 78L136.991 78" stroke="white" stroke-width="3" stroke-linecap="round"/>
<path d="M136.991 78L134.991 96" stroke="white" stroke-width="3" stroke-linecap="round"/>
<path d="M135.491 97H106.991" stroke="white" stroke-width="3" stroke-linecap="round"/>
</svg>
