<svg width="200" height="200" viewBox="0 0 200 200" fill="none" xmlns="http://www.w3.org/2000/svg">
<path d="M100 60L95.3644 62.2251C90.2132 64.6977 85.8077 68.4887 82.5947 73.2136C80.2211 76.7042 78.5428 80.6717 77.6732 84.8023C77.2288 86.9132 76.572 88.9987 75.7223 90.9814L74.6304 93.529C73.2131 96.836 71.4958 100.006 69.5 103L68.2322 105.028C67.5109 106.182 67.6817 107.682 68.644 108.644C69.1921 109.192 69.9355 109.5 70.7106 109.5H71.3246C72.0772 109.5 72.799 109.799 73.3311 110.331C73.7653 110.765 74.0469 111.329 74.1338 111.936L74.4121 113.885C74.4706 114.294 74.5 114.708 74.5 115.121V118V119.686C74.5 120.55 74.7013 121.403 75.0878 122.176C75.6768 123.354 76.6642 124.285 77.8747 124.803L78.8718 125.231C79.2899 125.41 79.7217 125.555 80.163 125.666L83.5 126.5C84.9841 126.797 86.0982 128.031 86.2417 129.538L86.8104 135.509C86.9179 136.638 87.866 137.5 89 137.5H117C119.232 137.5 121.063 135.733 121.143 133.503L121.418 125.809C121.472 124.284 121.814 122.782 122.426 121.383L125 115.5L130 101" stroke="white" stroke-width="3" stroke-linecap="round"/>
<path d="M106 56.5H131C134.59 56.5 137.5 59.4101 137.5 63V94C137.5 97.5899 134.59 100.5 131 100.5H106C102.41 100.5 99.5 97.5899 99.5 94V63C99.5 59.4101 102.41 56.5 106 56.5Z" stroke="white" stroke-width="3"/>
<path d="M114 82H128" stroke="white" stroke-width="3" stroke-linecap="round"/>
<path d="M106 75H128" stroke="white" stroke-width="3" stroke-linecap="round"/>
<path d="M110 69H130" stroke="white" stroke-width="3" stroke-linecap="round"/>
<path d="M112 89H124" stroke="white" stroke-width="3" stroke-linecap="round"/>
</svg>
