<svg width="200" height="200" viewBox="0 0 200 200" fill="none" xmlns="http://www.w3.org/2000/svg">
<path d="M100 59L95.3644 61.2251C90.2132 63.6977 85.8077 67.4887 82.5947 72.2136C80.2211 75.7042 78.5428 79.6717 77.6732 83.8023C77.2288 85.9132 76.572 87.9987 75.7223 89.9814L74.6304 92.529C73.2131 95.836 71.4958 99.0063 69.5 102L68.2322 104.028C67.5109 105.182 67.6817 106.682 68.644 107.644C69.1921 108.192 69.9355 108.5 70.7106 108.5H71.3246C72.0772 108.5 72.799 108.799 73.3311 109.331C73.7653 109.765 74.0469 110.329 74.1338 110.936L74.4121 112.885C74.4706 113.294 74.5 113.708 74.5 114.121V117V118.686C74.5 119.55 74.7013 120.403 75.0878 121.176C75.6768 122.354 76.6642 123.285 77.8747 123.803L78.8718 124.231C79.2899 124.41 79.7217 124.555 80.163 124.666L83.5 125.5C84.9841 125.797 86.0982 127.031 86.2417 128.538L86.8104 134.509C86.9179 135.638 87.866 136.5 89 136.5H117C119.232 136.5 121.063 134.733 121.143 132.503L121.418 124.809C121.472 123.284 121.814 121.782 122.426 120.383L125 114.5L130 100" stroke="white" stroke-width="3" stroke-linecap="round"/>
<path d="M84 84.3295H91.9118C92.1312 84.3295 92.3444 84.2574 92.5188 84.1243L96.5213 81.0678C96.9336 80.753 97.5181 80.8057 97.8675 81.1892L101.377 85.0418C101.818 85.5262 102.599 85.4623 102.955 84.9124L108.166 76.8776C108.482 76.3909 109.144 76.274 109.607 76.6231L112.645 78.9129C113.108 79.2613 113.768 79.1455 114.085 78.6608L123 65" stroke="white" stroke-width="2" stroke-linecap="round"/>
<path d="M124.739 60.6275C125.502 60.0044 126.611 60.7426 126.33 61.6866L125.264 65.2771C125.072 65.9221 124.311 66.1976 123.751 65.8248L121.917 64.6043C121.357 64.2315 121.318 63.4231 121.839 62.9974L124.739 60.6275Z" fill="#FEF0F0"/>
<path d="M81 83.5C81.9992 83.5 83.0872 84.1076 83.9941 85.4678C84.8942 86.8178 85.5 88.7696 85.5 91C85.5 93.2304 84.8942 95.1822 83.9941 96.5322C83.0872 97.8924 81.9992 98.5 81 98.5C80.0008 98.5 78.9128 97.8924 78.0059 96.5322C77.1058 95.1822 76.5 93.2304 76.5 91C76.5 88.7696 77.1058 86.8178 78.0059 85.4678C78.9128 84.1076 80.0008 83.5 81 83.5Z" stroke="white" stroke-width="3"/>
<path d="M101 59V100" stroke="white" stroke-linecap="round"/>
<path d="M134 95H101" stroke="white" stroke-linecap="round"/>
<path d="M134 85H101" stroke="white" stroke-linecap="round"/>
<path d="M134 75H101" stroke="white" stroke-linecap="round"/>
<path d="M134 65H101" stroke="white" stroke-linecap="round"/>
<path d="M111 59V100" stroke="white" stroke-linecap="round"/>
<path d="M121 59V100" stroke="white" stroke-linecap="round"/>
<path d="M131 59V100" stroke="white" stroke-linecap="round"/>
</svg>
