<svg width="200" height="200" viewBox="0 0 200 200" fill="none" xmlns="http://www.w3.org/2000/svg">
<path d="M92.2546 75.5487C96.7318 74.2846 101.149 77.7278 101.016 82.3783L100.109 114.105C99.9556 113.806 99.753 113.535 99.5072 113.304L98.7939 112.636C97.0943 111.043 94.7545 110.323 92.4534 110.686L91.4336 110.847L90.6023 110.945C86.9392 111.369 83.5445 113.078 81.0223 115.768L79.7339 117.143C79.5287 117.362 79.2853 117.541 79.0153 117.672C77.747 118.285 76.2238 117.703 75.6883 116.4L62.3683 83.9859L92.2546 75.5487Z" stroke="white" stroke-width="3" stroke-linecap="round"/>
<path d="M110.198 75.5487C105.72 74.2846 101.303 77.7278 101.436 82.3783L102.343 114.105C102.496 113.806 102.699 113.535 102.945 113.304L103.658 112.636C105.358 111.043 107.698 110.323 109.999 110.686L111.018 110.847L111.85 110.945C115.513 111.369 118.908 113.078 121.43 115.768L122.718 117.143C122.923 117.362 123.167 117.541 123.437 117.672C124.705 118.285 126.228 117.703 126.764 116.4L140.084 83.9859L110.198 75.5487Z" stroke="white" stroke-width="3" stroke-linecap="round"/>
<path d="M100.173 114.756C100.187 114.767 100.278 114.809 100.418 114.842C100.7 114.907 100.928 114.865 101.122 114.875C101.295 114.885 101.621 114.88 101.817 114.872C102.154 114.824 102.227 114.808 102.275 114.781C102.303 114.762 102.342 114.733 102.391 114.698" stroke="white" stroke-width="2" stroke-linecap="round"/>
<path d="M147 104.5C149.038 104.5 150.7 105.739 151.783 107.364C152.874 109 153.5 111.174 153.5 113.5C153.5 115.826 152.874 118 151.783 119.636C150.7 121.261 149.038 122.5 147 122.5C144.962 122.5 143.3 121.261 142.217 119.636C141.126 118 140.5 115.826 140.5 113.5C140.5 111.174 141.126 109 142.217 107.364C143.3 105.739 144.962 104.5 147 104.5Z" stroke="white" stroke-width="3"/>
<path d="M147 109V113" stroke="white" stroke-width="2" stroke-linecap="round"/>
<path d="M135.47 95.7183L137.753 95.5048C143.028 95.0116 147.227 99.8462 146 105" stroke="white" stroke-width="2" stroke-linecap="round"/>
<path d="M123 84H109" stroke="white" stroke-width="3" stroke-linecap="round"/>
<path d="M131 91H113" stroke="white" stroke-width="3" stroke-linecap="round"/>
<path d="M126 98H106" stroke="white" stroke-width="3" stroke-linecap="round"/>
<path d="M126 105H114" stroke="white" stroke-width="3" stroke-linecap="round"/>
<path d="M80 98H94" stroke="white" stroke-width="3" stroke-linecap="round"/>
<path d="M72 91H94" stroke="white" stroke-width="3" stroke-linecap="round"/>
<path d="M76 85H96" stroke="white" stroke-width="3" stroke-linecap="round"/>
<path d="M78 105H90" stroke="white" stroke-width="3" stroke-linecap="round"/>
<path d="M123 84H109" stroke="white" stroke-width="3" stroke-linecap="round"/>
<path d="M131 91H113" stroke="white" stroke-width="3" stroke-linecap="round"/>
<path d="M126 98H106" stroke="white" stroke-width="3" stroke-linecap="round"/>
<path d="M126 105H114" stroke="white" stroke-width="3" stroke-linecap="round"/>
<path d="M78 118L93.4353 116.392C99.1287 115.799 104.869 115.819 110.558 116.451L124.5 118" stroke="white" stroke-width="3" stroke-linecap="round"/>
</svg>
