<svg width="200" height="200" viewBox="-62 -59 200 200" fill="none" xmlns="http://www.w3.org/2000/svg">
<path d="M50.3742 79.8269C44.4286 79.8269 39.1156 78.5745 35.4978 76.9639C31.4958 75.1822 30.6098 70.6658 30.563 66.2853C30.4971 60.1105 31.7157 66.5158 50.3743 67.3269" stroke="white" stroke-width="3"/>
<path d="M49.3743 79.8274C55.32 79.8274 60.633 78.575 64.2507 76.9644C68.2528 75.1827 69.1387 70.6663 69.1855 66.2858C69.2514 60.1109 68.0328 66.5162 49.3743 67.3274" stroke="white" stroke-width="3"/>
<path d="M49.3743 28.327C55.8567 28.327 61.0974 25.0701 61.3419 22.7426C61.1844 9.87058 63.3041 17.5245 49.3743 18.3269" stroke="white" stroke-width="3" stroke-linecap="round"/>
<path d="M49.3742 28.3269C42.8918 28.3269 37.6512 25.07 37.4066 22.7426C37.5641 9.87051 35.4444 17.4939 49.3743 18.2963" stroke="white" stroke-width="3" stroke-linecap="round"/>
<path d="M68.8743 63.8269L65.6702 61.4239C63.8717 60.075 62.6431 58.1018 62.2263 55.8926L57.8743 32.8269L56.8743 27.3269" stroke="white" stroke-width="3"/>
<path d="M30.8743 63.8269L34.0783 61.4239C35.8769 60.075 37.1054 58.1018 37.5223 55.8926L41.8743 32.8269L42.8743 27.3269" stroke="white" stroke-width="3"/>
<path d="M49.3743 75.3269H49.9666C56.3181 75.3269 62.5955 73.9628 68.3743 71.3269" stroke="white" stroke-width="3"/>
<path d="M49.3743 75.3269H48.9025C42.8335 75.3269 36.8424 73.9597 31.3743 71.3269" stroke="white" stroke-width="3"/>
<path d="M28.1042 25.4708C29.3137 25.9885 30.7869 25.4503 31.3868 24.2823C32.2823 25.261 33.8621 25.3644 34.8899 24.5355C35.3052 25.8006 36.7107 26.5467 37.9913 26.2112C37.8388 27.5606 38.8438 28.8483 40.1885 29.0313C39.5458 30.194 39.932 31.7452 41.0603 32.4574C40.0004 33.254 39.716 34.8216 40.4538 35.9312C39.1724 36.2296 38.2882 37.5323 38.5007 38.8351C37.2116 38.5844 35.8814 39.4135 35.5399 40.6815C34.4631 39.9189 32.9041 40.1401 32.0731 41.1597C31.4002 40.0095 29.8671 39.5765 28.6859 40.1791C28.5423 38.8524 27.3198 37.8244 25.9928 37.8907C26.4201 36.6019 25.7038 35.1332 24.424 34.6774C25.2891 33.6745 25.2362 32.0843 24.2819 31.155C25.4788 30.5965 26.0796 29.132 25.594 27.8971C26.9069 27.8722 28.0372 26.7849 28.1042 25.4708Z" stroke="white" stroke-width="3"/>
<path d="M64.195 43.4191C64.7139 43.8046 65.3836 43.9556 66.0175 43.8291C66.2107 44.4456 66.6644 44.9607 67.2512 45.231C67.045 45.8434 67.1093 46.5274 67.4253 47.091C66.8989 47.4652 66.5489 48.056 66.4732 48.6975C65.8271 48.6908 65.1967 48.9638 64.7585 49.4386C64.2394 49.0532 63.5689 48.9019 62.935 49.0287C62.7414 48.4122 62.2883 47.8967 61.7013 47.6268C61.9074 47.0141 61.8436 46.3305 61.5272 45.7668C62.054 45.3924 62.4037 44.8021 62.4793 44.1603C63.126 44.1673 63.7565 43.8944 64.195 43.4191Z" stroke="white" stroke-width="3"/>
<circle cx="32.7027" cy="32.537" r="7" transform="rotate(-30.0794 32.7027 32.537)" stroke="white" stroke-width="3"/>
<path d="M64.3743 44.3269C65.4788 44.3269 66.3743 45.2223 66.3743 46.3269C66.3743 47.4315 65.4788 48.3269 64.3743 48.3269C63.2697 48.3269 62.3743 47.4315 62.3743 46.3269C62.3743 45.2223 63.2697 44.3269 64.3743 44.3269Z" stroke="white" stroke-width="2"/>
<path d="M57.3743 16.3269V22.8269" stroke="white" stroke-width="1.5" stroke-linecap="round"/>
<path d="M49.5743 18.3269V24.8269" stroke="white" stroke-width="1.5" stroke-linecap="round"/>
<path d="M41.3743 16.3269V22.8269" stroke="white" stroke-width="1.5" stroke-linecap="round"/>
</svg>
